<svg width="20" height="21" viewBox="0 0 20 21" fill="none" xmlns="http://www.w3.org/2000/svg">
<path d="M17 2.25H14.75V1C14.75 0.59 14.41 0.25 14 0.25C13.59 0.25 13.25 0.59 13.25 1V2.25H6.75V1C6.75 0.59 6.41 0.25 6 0.25C5.59 0.25 5.25 0.59 5.25 1V2.25H3C1.48 2.25 0.25 3.48 0.25 5V18C0.25 19.52 1.48 20.75 3 20.75H17C18.52 20.75 19.75 19.52 19.75 18V5C19.75 3.48 18.52 2.25 17 2.25ZM3 3.75H5.25V5C5.25 5.41 5.59 5.75 6 5.75C6.41 5.75 6.75 5.41 6.75 5V3.75H13.25V5C13.25 5.41 13.59 5.75 14 5.75C14.41 5.75 14.75 5.41 14.75 5V3.75H17C17.69 3.75 18.25 4.31 18.25 5V7.25H1.75V5C1.75 4.31 2.31 3.75 3 3.75ZM17 19.25H3C2.31 19.25 1.75 18.69 1.75 18V8.75H18.25V18C18.25 18.69 17.69 19.25 17 19.25Z" fill="#71737F"/>
<path d="M10.0195 10.98C9.46953 10.98 9.01953 11.43 9.01953 11.98C9.01953 12.53 9.46953 12.98 10.0195 12.98C10.5695 12.98 11.0195 12.53 11.0195 11.98C11.0195 11.43 10.5695 10.98 10.0195 10.98Z" fill="#71737F"/>
<path d="M15.0195 10.98C14.4695 10.98 14.0195 11.43 14.0195 11.98C14.0195 12.53 14.4695 12.98 15.0195 12.98C15.5695 12.98 16.0195 12.53 16.0195 11.98C16.0195 11.43 15.5695 10.98 15.0195 10.98Z" fill="#71737F"/>
<path d="M5.01953 14.98C4.46953 14.98 4.01953 15.43 4.01953 15.98C4.01953 16.53 4.46953 16.98 5.01953 16.98C5.59953 16.94 6.01953 16.53 6.01953 15.98C6.01953 15.43 5.56953 14.98 5.01953 14.98Z" fill="#71737F"/>
<path d="M10.0195 14.98C9.46953 14.98 9.01953 15.43 9.01953 15.98C9.01953 16.53 9.46953 16.98 10.0195 16.98C10.5595 16.94 11.0195 16.53 11.0195 15.98C11.0195 15.43 10.5695 14.98 10.0195 14.98Z" fill="#71737F"/>
</svg>
