<svg width="24" height="24" viewBox="0 0 24 24" fill="none" xmlns="http://www.w3.org/2000/svg">
<path d="M21.5403 11.18C21.0203 10.22 20.3903 9.3 19.6503 8.44C19.3803 8.13 18.9103 8.09 18.5903 8.36C18.2703 8.63 18.2403 9.1 18.5103 9.42C19.1803 10.2 19.7603 11.04 20.2203 11.9C20.2603 11.97 20.2603 12.05 20.2203 12.12C18.2603 15.73 14.8803 18.26 12.0003 18.26C11.2803 18.26 10.5303 18.11 9.77027 17.82C9.38027 17.67 8.95027 17.86 8.80027 18.25C8.65027 18.64 8.84027 19.07 9.23027 19.22C10.1703 19.58 11.1003 19.77 12.0103 19.77C16.0103 19.77 19.6903 16.29 21.5503 12.84C21.8303 12.32 21.8303 11.71 21.5503 11.19L21.5403 11.18Z" fill="currentColor"/>
<path d="M19.53 5.53C19.82 5.24 19.82 4.76 19.53 4.47C19.24 4.18 18.76 4.18 18.47 4.47L16.97 5.97C15.34 4.84 13.64 4.25 12 4.25C8 4.25 4.32 7.73 2.46 11.18C2.18 11.7 2.18 12.31 2.46 12.83C3.33 14.45 4.53 15.92 5.86 17.09L4.47 18.48C4.18 18.77 4.18 19.25 4.47 19.54C4.62 19.69 4.81 19.76 5 19.76C5.19 19.76 5.38 19.69 5.53 19.54L19.53 5.54V5.53ZM3.78 12.11C3.74 12.04 3.74 11.96 3.78 11.89C5.74 8.28 9.12 5.75 12 5.75C13.25 5.75 14.58 6.2 15.89 7.05L14.18 8.76C12.66 7.74 10.59 7.9 9.25 9.24C7.91 10.58 7.75 12.66 8.77 14.17L6.92 16.02C5.69 14.96 4.58 13.6 3.78 12.11ZM9.87 13.07C9.42 12.17 9.56 11.05 10.31 10.3C11.06 9.55 12.18 9.41 13.08 9.86L9.87 13.07Z" fill="currentColor"/>
</svg>
