<svg width="28" height="29" viewBox="0 0 28 29" fill="none" xmlns="http://www.w3.org/2000/svg">
<path d="M21.7778 15.6087H6.22222C5.68333 15.6087 5.25 15.0887 5.25 14.4421C5.25 13.7954 5.68333 13.2754 6.22222 13.2754H21.7778C22.3167 13.2754 22.75 13.7954 22.75 14.4421C22.75 15.0887 22.3167 15.6087 21.7778 15.6087Z" fill="#71737F"/>
<path d="M21.7778 22.0833H6.22222C5.68333 22.0833 5.25 21.5633 5.25 20.9167C5.25 20.27 5.68333 19.75 6.22222 19.75H21.7778C22.3167 19.75 22.75 20.27 22.75 20.9167C22.75 21.5633 22.3167 22.0833 21.7778 22.0833Z" fill="#71737F"/>
<path d="M21.7778 9.25033H6.22222C5.68333 9.25033 5.25 8.73033 5.25 8.08366C5.25 7.43699 5.68333 6.91699 6.22222 6.91699H21.7778C22.3167 6.91699 22.75 7.43699 22.75 8.08366C22.75 8.73033 22.3167 9.25033 21.7778 9.25033Z" fill="#71737F"/>
</svg>
