<svg width="64" height="64" viewBox="0 0 64 64" fill="none" xmlns="http://www.w3.org/2000/svg">
<path d="M48.0002 53.3333C48.0002 49.0898 46.3145 45.0201 43.3139 42.0195C40.3133 39.019 36.2436 37.3333 32.0002 37.3333M32.0002 37.3333C27.7567 37.3333 23.687 39.019 20.6865 42.0195C17.6859 45.0201 16.0002 49.0898 16.0002 53.3333M32.0002 37.3333C37.8912 37.3333 42.6668 32.5576 42.6668 26.6666C42.6668 20.7755 37.8912 15.9999 32.0002 15.9999C26.1091 15.9999 21.3335 20.7755 21.3335 26.6666C21.3335 32.5576 26.1091 37.3333 32.0002 37.3333ZM58.6668 31.9999C58.6668 46.7275 46.7278 58.6666 32.0002 58.6666C17.2726 58.6666 5.3335 46.7275 5.3335 31.9999C5.3335 17.2723 17.2726 5.33325 32.0002 5.33325C46.7278 5.33325 58.6668 17.2723 58.6668 31.9999Z" stroke="#4D89C0" stroke-width="2" stroke-linecap="round" stroke-linejoin="round"/>
</svg>
